<svg width="844" height="40" viewBox="0 0 844 40" fill="none" xmlns="http://www.w3.org/2000/svg">
<g opacity="0.6">
<path d="M353.918 12.9085C749.674 12.9085 1133.65 31.934 1114.22 66.6738C1114.22 81.1242 685.083 70.0411 573.345 83.1738C461.608 96.3064 533.67 104.051 373.351 105.062C153.033 105.062 19.3126 90.0768 -54.1673 84.0156C-139.894 76.9442 -288.169 63.3064 -288.169 48.7146C-288.169 21.2835 -41.8374 12.9085 353.918 12.9085Z" stroke="white"/>
<path d="M204.14 6.3922C348.273 2.15505 438.532 9.55165 516.635 15.9522C551.284 18.7916 583.541 21.4351 617.049 22.7798C666.716 24.773 737.2 24.8613 807.852 24.9499C835.453 24.9845 863.08 25.0191 889.502 25.1674C936.536 25.4313 979.75 26.0551 1012.22 27.6787C1028.45 28.4906 1041.98 29.5519 1051.96 30.9412C1056.95 31.636 1061.04 32.411 1064.12 33.2736C1065.66 33.7049 1066.94 34.1552 1067.95 34.6235C1068.97 35.0942 1069.69 35.5697 1070.13 36.0377C1070.49 36.4089 1070.57 36.6883 1070.55 36.8932C1070.53 37.1084 1070.38 37.3876 1069.97 37.7229C1069.14 38.4022 1067.5 39.0839 1065.07 39.7455C1060.25 41.0589 1052.63 42.2167 1043.06 43.2849C1026.88 45.0936 1005.23 46.6363 982.495 48.257C978.392 48.5495 974.253 48.8445 970.105 49.144C942.975 51.103 915.417 53.257 894.64 56.1716C884.255 57.6284 875.539 59.2786 869.41 61.1973C866.349 62.1556 863.9 63.1907 862.207 64.322C860.53 65.4429 859.477 66.7396 859.477 68.2445C859.477 72.9922 856.736 77.0194 850.524 80.4767C844.296 83.9428 834.665 86.7818 821.094 89.1425C793.963 93.8621 751.285 96.6397 689.114 98.8366C597.698 102.067 529.412 101.528 445.885 100.87C407.535 100.567 365.972 100.239 317.482 100.239C290.316 100.239 265.727 100.271 243.21 100.3C115.839 100.463 54.7821 100.541 -31.4601 94.3478C-94.2862 89.8359 -138.992 84.0361 -167.981 77.4313C-182.48 74.1279 -193.017 70.6298 -199.918 67.0071C-206.862 63.3619 -209.938 59.6918 -209.938 56.122C-209.938 55.3457 -209.321 54.3957 -207.778 53.2945C-206.265 52.2145 -203.99 51.0822 -200.979 49.9111C-194.962 47.5713 -186.114 45.1169 -174.817 42.6138C-152.231 37.6088 -119.937 32.425 -81.1288 27.5678C-3.51576 17.8536 100.109 9.45043 204.14 6.3922Z" stroke="white"/>
</g>
</svg>
